<svg xmlns="http://www.w3.org/2000/svg" xmlns:xlink="http://www.w3.org/1999/xlink" width="225.305" height="96.352" viewBox="0 0 225.305 96.352">
<defs>
    <style>.a{fill:none;}.b{fill:#c30039;}.c{fill:#fff;}.d{clip-path:url(#a);}</style>
    <clipPath id="a">
        <path class="a" d="M0,35.439H225.305V-60.913H0Z" transform="translate(0 60.913)"/>
    </clipPath>
</defs>
    <g transform="translate(0 0)">
        <path class="b" d="M107.5-12.129h48.373V-60.5H107.5Z" transform="translate(62.542 61.153)"/>
        <g transform="translate(73.596 12.858)">
            <path class="c" d="M17.743,0V24.1H-18.382V0H-30.5V60.284h12.115V36.2H17.743V60.284H29.766V0Z" transform="translate(30.497)"/>
        </g>
        <g class="d" transform="translate(0 0)">
            <g transform="translate(1.272 12.879)">
                <path class="c" d="M22.181,19.754V-33.954H10.14V14.27H-26.092V-33.954h-6.15a5.882,5.882,0,0,0-5.883,5.883v54.36H15.646a6.534,6.534,0,0,0,6.534-6.534" transform="translate(38.125 33.954)"/>
            </g>
            <g transform="translate(145.944 12.865)">
                <path class="c" d="M4.448,17.724V-22.925c0-5.228-2.271-7.54-7.537-7.54H-7.645V29.868H52.794V17.724Z" transform="translate(7.645 30.465)"/>
            </g>
            <g transform="translate(61.613 85.445)">
                <path class="c" d="M3.12,3.273H1.174L-.114-1.933C-.53-.212-.973,1.553-1.389,3.273H-3.331l-2.031-8.9H-3.5L-2.323-.139c.416-1.808.876-3.689,1.289-5.486H.807L2.095-.139c.384-1.808.773-3.689,1.158-5.486H5.179Z" transform="translate(5.362 5.625)"/>
            </g>
            <path class="c" d="M46.33,2h1.822V-6.894H46.33Z" transform="translate(26.954 92.341)"/>
            <g transform="translate(77.005 85.444)">
                <path class="c" d="M2.242,1.6a4.527,4.527,0,0,1-.8.8A1.631,1.631,0,0,1,1.1,2.6C1.81,3.931,2.968,6.142,2.968,6.142H.951l-1.689-3.4h-1.3v3.4h-1.81v-8.9H.329a2.08,2.08,0,0,1,1.11.342,6.719,6.719,0,0,1,.8.816,1.758,1.758,0,0,1,.28.979V.641a1.675,1.675,0,0,1-.28.963M.714-.664A1.115,1.115,0,0,0,.329-1.02H-2.043V1.011H.329A1.179,1.179,0,0,0,.714.655Z" transform="translate(3.853 2.757)"/>
            </g>
            <g transform="translate(88.69 85.444)">
                <path class="c" d="M2.242,2.847a5,5,0,0,1-.785.816,2.141,2.141,0,0,1-1.128.342H-3.853v-8.9H.329a2.077,2.077,0,0,1,1.128.356,5.823,5.823,0,0,1,.785.8,1.788,1.788,0,0,1,.266.992v1.069A1.761,1.761,0,0,1,2.019-.429,1.679,1.679,0,0,1,2.507.816V1.884a1.7,1.7,0,0,1-.266.963M.7-2.744a1.136,1.136,0,0,0-.4-.413H-2.043v1.867H.313A1.049,1.049,0,0,0,.7-1.661ZM.7.8A1.156,1.156,0,0,0,.3.384H-2.043V2.268H.313A.99.99,0,0,0,.7,1.884Z" transform="translate(3.853 4.894)"/>
            </g>
            <g transform="translate(95.883 85.445)">
                <path class="c" d="M2.29,3.273,1.7,1.567H-1.4c-.19.547-.413,1.155-.607,1.705H-3.937l3.084-8.9h2l3.067,8.9ZM.139-3.031C-.187-2.08-.528-1.117-.853-.168h2Z" transform="translate(3.937 5.625)"/>
            </g>
            <g transform="translate(105.197 85.445)">
                <path class="c" d="M2.329,2.8A5.192,5.192,0,0,1,1.261,3.881a2.107,2.107,0,0,1-.978.278H-1.69a2.006,2.006,0,0,1-.978-.278A5.364,5.364,0,0,1-3.751,2.8,1.592,1.592,0,0,1-4,1.879V-4.809h1.81V1.863a3.24,3.24,0,0,0,.549.565H.236a2.294,2.294,0,0,0,.536-.549V-4.809H2.58V1.879a1.6,1.6,0,0,1-.252.919" transform="translate(4.003 4.809)"/>
            </g>
            <g transform="translate(113.442 85.445)">
                <path class="c" d="M0,3.273v-8.9H5.7V-3.89H1.808v1.841H5.562V-.316H1.808V1.539H5.7V3.273Z" transform="translate(0 5.625)"/>
            </g>
            <g transform="translate(120.947 85.445)">
                <path class="c" d="M1.723,3.273-1.153-1.963V3.273H-2.961v-8.9H-1.11L1.737-.316V-5.625H3.545v8.9Z" transform="translate(2.961 5.625)"/>
            </g>
            <g transform="translate(129.443 84.762)">
                <path class="c" d="M.054,0V1.974L-.093,3.322H1.653L1.805,2.18V0Z" transform="translate(0.093)"/>
            </g>
            <g transform="translate(132.645 85.372)">
                <path class="c" d="M2.411,2.836a7.409,7.409,0,0,1-.993,1.025A1.96,1.96,0,0,1,.3,4.183H-1.831A2.679,2.679,0,0,1-3.774,2.94a4.251,4.251,0,0,1-.37-.683l1.765-.475a1.467,1.467,0,0,0,.547.669h2.2a1.947,1.947,0,0,0,.475-.5V1.056A.115.115,0,0,0,.793.966C-.379.642-1.578.286-2.763-.04A1.741,1.741,0,0,1-4-1.763v-.813A1.783,1.783,0,0,1-3.76-3.51,9.205,9.205,0,0,1-2.78-4.52a2.093,2.093,0,0,1,1.114-.354h1.9A2.573,2.573,0,0,1,2.174-3.643a5.525,5.525,0,0,1,.356.666L.793-2.5A1.47,1.47,0,0,0,.171-3.14H-1.578a2.108,2.108,0,0,0-.609.533v.788a.115.115,0,0,0,.046.089c1.172.342,2.387.683,3.575,1.022A1.768,1.768,0,0,1,2.648,1.013V1.9a1.8,1.8,0,0,1-.237.935" transform="translate(4.144 4.874)"/>
            </g>
            <path class="c" d="M89.212-.5H91.3V-2.6h-2.09Z" transform="translate(51.902 94.839)"/>
            <g transform="translate(148.662 85.445)">
                <path class="c" d="M0,3.273V1.952L3.811-3.89H.06V-5.625H6.169v1.337L2.4,1.539H6.169V3.273Z" transform="translate(0 5.625)"/>
            </g>
            <g transform="translate(156.195 85.445)">
                <path class="c" d="M2.329,2.8A5.192,5.192,0,0,1,1.261,3.881a2.107,2.107,0,0,1-.978.278H-1.69a2.006,2.006,0,0,1-.978-.278A5.364,5.364,0,0,1-3.751,2.8,1.592,1.592,0,0,1-4,1.879V-4.809h1.81V1.863a3.421,3.421,0,0,0,.549.565H.238a2.323,2.323,0,0,0,.535-.549V-4.809H2.58V1.879a1.6,1.6,0,0,1-.252.919" transform="translate(4.003 4.809)"/>
            </g>
            <g transform="translate(164.115 85.372)">
                <path class="c" d="M2.41,2.836a7.4,7.4,0,0,1-.992,1.025A1.969,1.969,0,0,1,.3,4.183H-1.832A2.679,2.679,0,0,1-3.774,2.94a4.132,4.132,0,0,1-.369-.683l1.764-.475a1.467,1.467,0,0,0,.547.669h2.2a1.947,1.947,0,0,0,.475-.5V1.056A.116.116,0,0,0,.794.966C-.378.642-1.579.286-2.764-.04A1.739,1.739,0,0,1-4-1.763v-.813a1.768,1.768,0,0,1,.237-.935A9.04,9.04,0,0,1-2.781-4.52a2.093,2.093,0,0,1,1.114-.354h1.9A2.573,2.573,0,0,1,2.173-3.643a5.525,5.525,0,0,1,.356.666L.794-2.5A1.48,1.48,0,0,0,.171-3.14H-1.579a2.108,2.108,0,0,0-.609.533v.788a.114.114,0,0,0,.047.089c1.172.342,2.387.683,3.573,1.022A1.768,1.768,0,0,1,2.648,1.013V1.9a1.8,1.8,0,0,1-.237.935" transform="translate(4.143 4.874)"/>
            </g>
            <g transform="translate(171.575 85.445)">
                <path class="c" d="M2.29,3.273,1.7,1.567H-1.4c-.19.547-.413,1.155-.606,1.705H-3.936l3.084-8.9h2l3.066,8.9ZM.139-3.031c-.326.951-.668,1.914-.99,2.863h2Z" transform="translate(3.936 5.625)"/>
            </g>
            <g transform="translate(180.886 85.445)">
                <path class="c" d="M2.231,3.273V-2.08C1.728-1,1.191.084.688,1.151H-.5L-2.026-2.066V3.273H-3.834v-8.9h1.972L.124-1.591c.653-1.333,1.3-2.714,1.96-4.034H4.039v8.9Z" transform="translate(3.834 5.625)"/>
            </g>
            <g transform="translate(190.629 85.445)">
                <path class="c" d="M2.231,3.273V-2.08C1.728-1,1.193.084.688,1.151H-.5L-2.026-2.066V3.273H-3.834v-8.9H-1.86L.124-1.591c.655-1.333,1.3-2.714,1.96-4.034H4.04v8.9Z" transform="translate(3.834 5.625)"/>
            </g>
            <g transform="translate(200.372 85.445)">
                <path class="c" d="M0,3.273v-8.9H5.7V-3.89H1.808v1.841H5.562V-.316H1.808V1.539H5.7V3.273Z" transform="translate(0 5.625)"/>
            </g>
            <g transform="translate(207.878 85.445)">
                <path class="c" d="M1.723,3.273-1.153-1.963V3.273H-2.961v-8.9H-1.11L1.737-.316V-5.625H3.545v8.9Z" transform="translate(2.961 5.625)"/>
            </g>
            <path class="c" d="M136.754-.5h2.093V-2.6h-2.093Z" transform="translate(79.562 94.839)"/>
        </g>
    </g>
</svg>